<svg width="24" height="24" viewBox="0 0 24 24" fill="none" xmlns="http://www.w3.org/2000/svg">
<path fill-rule="evenodd" clip-rule="evenodd" d="M16.1584 8.23285C16.1584 10.5825 14.2852 12.4666 11.9491 12.4666C9.61303 12.4666 7.73984 10.5825 7.73984 8.23285C7.73984 5.88227 9.61303 4 11.9491 4C14.2852 4 16.1584 5.88227 16.1584 8.23285ZM11.949 20C8.51785 20 5.58809 19.456 5.58809 17.2802C5.58809 15.1034 8.49904 14.5396 11.949 14.5396C15.3802 14.5396 18.31 15.0836 18.31 17.2604C18.31 19.4362 15.399 20 11.949 20ZM17.9572 8.30922C17.9572 9.50703 17.5999 10.6229 16.9732 11.5505C16.9087 11.646 16.966 11.7748 17.0797 11.7946C17.2364 11.8216 17.3985 11.8369 17.5632 11.8414C19.2063 11.8846 20.681 10.821 21.0884 9.21974C21.6919 6.84123 19.9199 4.70589 17.6635 4.70589C17.4182 4.70589 17.1836 4.73201 16.9552 4.77884C16.9239 4.78605 16.8908 4.80046 16.8729 4.82838C16.8514 4.8626 16.8675 4.90853 16.889 4.93825C17.5668 5.8938 17.9572 7.05918 17.9572 8.30922ZM20.6784 13.5126C21.7825 13.7296 22.5086 14.1727 22.8095 14.8166C23.0638 15.3453 23.0638 15.9586 22.8095 16.4864C22.3493 17.4851 20.8656 17.8058 20.2889 17.8886C20.1699 17.9066 20.074 17.8031 20.0866 17.6833C20.3812 14.9157 18.0379 13.6035 17.4317 13.3018C17.4057 13.2883 17.4004 13.2676 17.4031 13.255C17.4049 13.246 17.4156 13.2316 17.4353 13.2289C18.7471 13.2046 20.1573 13.3847 20.6784 13.5126ZM6.43699 11.8413C6.60175 11.8368 6.76292 11.8224 6.92051 11.7945C7.03423 11.7747 7.09153 11.6459 7.02706 11.5504C6.40028 10.6228 6.04302 9.50694 6.04302 8.30913C6.04302 7.05909 6.43341 5.89371 7.11123 4.93816C7.13272 4.90844 7.14794 4.86251 7.12735 4.82829C7.10944 4.80127 7.07541 4.78596 7.04497 4.77875C6.81575 4.73192 6.58115 4.7058 6.33581 4.7058C4.0794 4.7058 2.3074 6.84114 2.91179 9.21965C3.3192 10.8209 4.79393 11.8845 6.43699 11.8413ZM6.59694 13.2545C6.59962 13.268 6.59425 13.2878 6.56918 13.3022C5.9621 13.6039 3.61883 14.9161 3.91342 17.6827C3.92595 17.8034 3.83104 17.9061 3.71195 17.889C3.13531 17.8061 1.65163 17.4855 1.19139 16.4867C0.936203 15.9581 0.936203 15.3457 1.19139 14.817C1.49225 14.1731 2.21752 13.73 3.32156 13.512C3.84358 13.385 5.25294 13.2049 6.5656 13.2292C6.5853 13.2319 6.59515 13.2463 6.59694 13.2545Z" fill="#124814"/>
</svg>
