<svg width="22" height="16" viewBox="0 0 22 16" fill="none"
                                            xmlns="http://www.w3.org/2000/svg">
                                            <path fill-rule="evenodd" clip-rule="evenodd"
                                                d="M15.1584 4.23285C15.1584 6.58254 13.2852 8.4666 10.9491 8.4666C8.61303 8.4666 6.73984 6.58254 6.73984 4.23285C6.73984 1.88227 8.61303 0 10.9491 0C13.2852 0 15.1584 1.88227 15.1584 4.23285ZM10.949 16C7.51785 16 4.58809 15.456 4.58809 13.2802C4.58809 11.1034 7.49904 10.5396 10.949 10.5396C14.3802 10.5396 17.31 11.0836 17.31 13.2604C17.31 15.4362 14.399 16 10.949 16ZM16.9572 4.30922C16.9572 5.50703 16.5999 6.62288 15.9732 7.55051C15.9087 7.64597 15.966 7.77476 16.0797 7.79457C16.2364 7.82159 16.3985 7.8369 16.5632 7.8414C18.2063 7.88463 19.681 6.82102 20.0884 5.21974C20.6919 2.84123 18.9199 0.705895 16.6635 0.705895C16.4182 0.705895 16.1836 0.732013 15.9552 0.778844C15.9239 0.786049 15.8908 0.800459 15.8729 0.828377C15.8514 0.862601 15.8675 0.908531 15.889 0.938251C16.5668 1.8938 16.9572 3.05918 16.9572 4.30922ZM19.6784 9.51257C20.7825 9.72962 21.5086 10.1727 21.8095 10.8166C22.0638 11.3453 22.0638 11.9586 21.8095 12.4864C21.3493 13.4851 19.8656 13.8058 19.2889 13.8886C19.1699 13.9066 19.074 13.8031 19.0866 13.6833C19.3812 10.9157 17.0379 9.60353 16.4317 9.30183C16.4057 9.28832 16.4004 9.2676 16.4031 9.255C16.4049 9.24599 16.4156 9.23158 16.4353 9.22888C17.7471 9.20456 19.1573 9.38468 19.6784 9.51257ZM5.43699 7.84131C5.60175 7.83681 5.76292 7.8224 5.92051 7.79448C6.03423 7.77467 6.09153 7.64588 6.02706 7.55042C5.40028 6.62279 5.04302 5.50694 5.04302 4.30913C5.04302 3.05909 5.43341 1.89371 6.11123 0.938161C6.13272 0.908441 6.14794 0.86251 6.12735 0.828287C6.10944 0.801269 6.07541 0.785958 6.04497 0.778754C5.81575 0.731922 5.58115 0.705804 5.33581 0.705804C3.0794 0.705804 1.3074 2.84114 1.91179 5.21965C2.3192 6.82093 3.79393 7.88454 5.43699 7.84131ZM5.59694 9.25445C5.59962 9.26796 5.59425 9.28778 5.56918 9.30219C4.9621 9.60389 2.61883 10.9161 2.91342 13.6827C2.92595 13.8034 2.83104 13.9061 2.71195 13.889C2.13531 13.8061 0.651629 13.4855 0.191392 12.4867C-0.0637974 11.9581 -0.0637974 11.3457 0.191392 10.817C0.492248 10.1731 1.21752 9.72997 2.32156 9.51203C2.84358 9.38504 4.25294 9.20492 5.5656 9.22924C5.5853 9.23194 5.59515 9.24635 5.59694 9.25445Z"
                                                fill="#124814" />
                                        </svg>