<svg width="127" height="128" viewBox="0 0 127 128" fill="none" xmlns="http://www.w3.org/2000/svg">
<g filter="url(#filter0_d)">
<ellipse cx="56.5" cy="59" rx="23.5" ry="24" fill="white"/>
</g>
<path d="M64.7823 58.9395C64.7821 58.9393 64.7819 58.9391 64.7816 58.9389L60.9036 55.5784C60.613 55.3267 60.1431 55.3276 59.8539 55.5806C59.5648 55.8336 59.5659 56.2428 59.8564 56.4946L62.4602 58.7507H46.7422C46.3323 58.7507 46 59.0401 46 59.397C46 59.7539 46.3323 60.0432 46.7422 60.0432H62.4601L59.8564 62.2994C59.5659 62.5512 59.5648 62.9603 59.854 63.2133C60.1432 63.4664 60.6131 63.4672 60.9036 63.2155L64.7817 59.855C64.7819 59.8548 64.7821 59.8546 64.7823 59.8544C65.073 59.6018 65.0721 59.1913 64.7823 58.9395Z" fill="black" stroke="black" stroke-width="0.84"/>
<defs>
<filter id="filter0_d" x="0" y="0" width="127" height="128" filterUnits="userSpaceOnUse" color-interpolation-filters="sRGB">
<feFlood flood-opacity="0" result="BackgroundImageFix"/>
<feColorMatrix in="SourceAlpha" type="matrix" values="0 0 0 0 0 0 0 0 0 0 0 0 0 0 0 0 0 0 127 0"/>
<feOffset dx="7" dy="5"/>
<feGaussianBlur stdDeviation="20"/>
<feColorMatrix type="matrix" values="0 0 0 0 0 0 0 0 0 0 0 0 0 0 0 0 0 0 0.1 0"/>
<feBlend mode="normal" in2="BackgroundImageFix" result="effect1_dropShadow"/>
<feBlend mode="normal" in="SourceGraphic" in2="effect1_dropShadow" result="shape"/>
</filter>
</defs>
</svg>
