<svg width="23" height="18" viewBox="0 0 23 18" fill="none" xmlns="http://www.w3.org/2000/svg">
<rect x="1.06934" y="1.06915" width="11.76" height="15.96" fill="white" stroke="black" stroke-width="1.68"/>
<path d="M21.8865 7.85315C21.8863 7.85296 21.8862 7.85274 21.886 7.85255L18.6284 4.61068C18.3843 4.36782 17.9896 4.36872 17.7467 4.6128C17.5038 4.85685 17.5047 5.25157 17.7488 5.49447L19.9359 7.67101H6.73281C6.38849 7.67101 6.10938 7.95012 6.10938 8.29445C6.10938 8.63877 6.38849 8.91788 6.73281 8.91788H19.9359L17.7488 11.0944C17.5047 11.3373 17.5038 11.732 17.7467 11.9761C17.9896 12.2202 18.3844 12.221 18.6284 11.9782L21.886 8.73634C21.8862 8.73615 21.8863 8.73593 21.8865 8.73575C22.1307 8.49205 22.1299 8.09604 21.8865 7.85315Z" fill="black" stroke="black" stroke-width="0.84"/>
</svg>
