<svg width="81" height="45" viewBox="0 0 81 45" fill="none" xmlns="http://www.w3.org/2000/svg">
            <path
                d="M79.906 22.5C79.906 34.1486 68.5538 43.9065 54.1257 43.9065C39.6977 43.9065 28.3454 34.1486 28.3454 22.5C28.3454 10.8514 39.6977 1.09346 54.1257 1.09346C68.5538 1.09346 79.906 10.8514 79.906 22.5Z"
                stroke="#124814" stroke-width="2.18692" />
            <path
                d="M52.6541 22.5C52.6541 34.1486 41.3018 43.9065 26.8738 43.9065C12.4457 43.9065 1.09346 34.1486 1.09346 22.5C1.09346 10.8514 12.4457 1.09346 26.8738 1.09346C41.3018 1.09346 52.6541 10.8514 52.6541 22.5Z"
                stroke="#124814" stroke-width="2.18692" />
            <path
                d="M18.2065 28.4315C19.8831 28.4315 21.3119 27.8337 22.2596 26.7257L21.0349 25.5594C20.2914 26.3758 19.3729 26.7694 18.3086 26.7694C16.1945 26.7694 14.6637 25.2823 14.6637 23.1829C14.6637 21.0835 16.1945 19.5964 18.3086 19.5964C19.3729 19.5964 20.2914 19.99 21.0349 20.7919L22.2596 19.6401C21.3119 18.5321 19.8831 17.9343 18.2211 17.9343C15.0865 17.9343 12.7538 20.1358 12.7538 23.1829C12.7538 26.23 15.0865 28.4315 18.2065 28.4315Z"
                fill="#124814" />
            <path
                d="M45.8469 28.2857L45.8323 18.0801H44.2723L40.2921 24.845L36.2391 18.0801H34.6791V28.2857H36.4869V21.6083L39.8402 27.1194H40.6858L44.0391 21.5208L44.0536 28.2857H45.8469Z"
                fill="#124814" />
            <path
                d="M62.3127 26.6965V23.8827H67.2405V22.3227H62.3127V19.6693H67.8674V18.0801H60.4173V28.2857H68.0715V26.6965H62.3127Z"
                fill="#124814" />
        </svg>