<svg width="16" height="16" viewBox="0 0 16 16" fill="none" xmlns="http://www.w3.org/2000/svg">
<path fill-rule="evenodd" clip-rule="evenodd" d="M10.89 1.83347H5.11065C3.09665 1.83347 1.83398 3.25947 1.83398 5.27747V10.7228C1.83398 12.7408 3.08998 14.1668 5.11065 14.1668H10.8893C12.91 14.1668 14.1673 12.7408 14.1673 10.7228V5.27747C14.1673 3.25947 12.91 1.83347 10.89 1.83347Z" stroke="black" stroke-width="1.5" stroke-linecap="round" stroke-linejoin="round"/>
<path d="M5.01351 8.79827C4.57284 8.79827 4.21484 8.44027 4.21484 8.00027C4.21484 7.56027 4.57284 7.2016 5.01351 7.2016C5.45418 7.2016 5.81218 7.56027 5.81218 8.00027C5.81218 8.44027 5.45418 8.79827 5.01351 8.79827Z" fill="black"/>
<path d="M8.00081 8.79827C7.56015 8.79827 7.20215 8.44027 7.20215 8.00027C7.20215 7.56027 7.56015 7.2016 8.00081 7.2016C8.44148 7.2016 8.79948 7.56027 8.79948 8.00027C8.79948 8.44027 8.44148 8.79827 8.00081 8.79827Z" fill="black"/>
<path d="M10.9862 8.79827C10.5455 8.79827 10.1875 8.44027 10.1875 8.00027C10.1875 7.56027 10.5455 7.2016 10.9862 7.2016C11.4268 7.2016 11.7848 7.56027 11.7848 8.00027C11.7848 8.44027 11.4268 8.79827 10.9862 8.79827Z" fill="black"/>
</svg>
