<svg width="14" height="16" viewBox="0 0 14 16" fill="none" xmlns="http://www.w3.org/2000/svg">
<path fill-rule="evenodd" clip-rule="evenodd" d="M6.85137 0.889587H6.7965C4.20487 0.889587 1.82864 2.73653 1.59811 5.18172C1.58274 5.35664 1.57226 5.53538 1.56549 5.72793L1.55602 6.1781L1.55414 6.58171L1.56571 6.5357C1.45876 7.04794 1.21226 7.52308 0.851719 7.91131L0.800049 7.9766C0.491337 8.43721 0.313958 8.97036 0.286502 9.52088L0.285852 9.7009C0.270091 10.425 0.522708 11.1415 0.997945 11.7105C1.64241 12.3789 2.47666 12.7775 3.37204 12.8621C5.66205 13.1064 7.97896 13.1064 10.2754 12.8615C11.1646 12.7811 12.0014 12.3812 12.6188 11.7376C13.085 11.1898 13.3395 10.5324 13.3613 9.8517L13.362 9.54699C13.3365 8.97225 13.158 8.43859 12.8456 7.97998L12.7981 7.92013L12.6822 7.78622C12.4217 7.46665 12.2315 7.09854 12.1233 6.7048L12.089 6.56343L12.0819 6.41517C12.0797 6.34849 12.0787 6.27454 12.0784 6.18219L12.0783 5.67364C12.0765 5.47911 12.0706 5.34077 12.0569 5.18504C11.8185 2.73523 9.44161 0.889587 6.85137 0.889587ZM6.79678 1.94373H6.85165C8.92664 1.94373 10.8195 3.41353 11.0013 5.28159C11.0121 5.40423 11.0169 5.52123 11.0183 5.69504L11.0204 6.37852C11.0227 6.48783 11.0271 6.57873 11.0346 6.68101L11.0445 6.75103L11.0944 6.95939C11.2423 7.51058 11.5079 8.02478 11.8736 8.4681L11.9797 8.59027L11.968 8.57111C12.1708 8.86883 12.2863 9.21434 12.3025 9.57063L12.302 9.69412C12.3142 10.1898 12.1469 10.6608 11.8303 11.0337C11.412 11.4684 10.8139 11.7542 10.1711 11.8124C7.94133 12.0501 5.70025 12.0501 3.47902 11.8132C2.82913 11.7517 2.23067 11.4657 1.78827 11.0083C1.50148 10.6627 1.33596 10.1933 1.34635 9.71212L1.34647 9.5469L1.35991 9.40298C1.39227 9.16217 1.47419 8.91812 1.60116 8.69342L1.66555 8.58875C2.13758 8.0673 2.46152 7.43324 2.6042 6.74989L2.61527 6.64275L2.62028 5.94821L2.63264 5.59584C2.63824 5.48468 2.64541 5.37906 2.6544 5.27669C2.83007 3.41362 4.7212 1.94373 6.79678 1.94373ZM1.66555 8.58875C1.65413 8.60137 1.64263 8.61391 1.63104 8.62639L1.66894 8.58324L1.66555 8.58875ZM8.82969 14.2552C8.60155 14.0727 8.26782 14.1087 8.08428 14.3355C8.00473 14.4338 7.91264 14.522 7.81016 14.598C7.46261 14.8657 7.02889 14.9849 6.59773 14.9345C6.16719 14.8841 5.77583 14.6689 5.51028 14.3375C5.32783 14.1098 4.99427 14.0723 4.76526 14.2537C4.53625 14.4351 4.49851 14.7667 4.68096 14.9944C5.12128 15.5439 5.76649 15.8987 6.47381 15.9815C7.18051 16.0641 7.89211 15.8685 8.45182 15.4372C8.61798 15.3142 8.77476 15.164 8.91045 14.9963C9.09399 14.7695 9.05783 14.4377 8.82969 14.2552Z" fill="black"/>
</svg>
